<?xml version="1.0" standalone="no"?>
<!DOCTYPE svg PUBLIC "-//W3C//DTD SVG 20010904//EN"
 "http://www.w3.org/TR/2001/REC-SVG-20010904/DTD/svg10.dtd">
<svg version="1.0" xmlns="http://www.w3.org/2000/svg"
 width="1024.000000pt" height="1024.000000pt" viewBox="0 0 1024.000000 1024.000000"
 preserveAspectRatio="xMidYMid meet">

<g transform="translate(0.000000,1024.000000) scale(0.100000,-0.100000)"
fill="currentColor" stroke="none">
<path d="M3725 8753 c-98 -22 -172 -114 -162 -201 3 -24 9 -47 13 -51 5 -3 10
-15 12 -25 9 -53 60 -92 135 -104 l42 -7 6 -90 c9 -119 11 -1047 2 -1152 l-6
-82 -96 -47 c-53 -26 -97 -51 -99 -55 -2 -5 -8 -9 -13 -9 -18 0 -155 -106
-232 -180 -43 -41 -97 -104 -121 -140 -54 -82 -112 -225 -126 -310 -6 -41 -10
-377 -10 -896 l0 -832 -27 -7 c-67 -17 -113 -75 -113 -144 0 -71 38 -126 107
-156 l32 -14 1 -777 c0 -653 3 -788 15 -850 21 -101 53 -179 113 -274 38 -60
225 -250 247 -250 7 0 15 -4 17 -9 5 -13 127 -89 189 -118 52 -24 57 -29 63
-65 4 -22 4 -86 0 -143 -8 -119 8 -189 54 -238 57 -60 -19 -57 1358 -57 870 0
1271 3 1291 11 38 14 71 46 94 91 16 32 19 60 19 202 l0 166 78 39 c150 75
324 218 412 337 45 60 90 146 121 234 l24 65 5 819 5 818 45 17 c61 22 90 67
90 138 0 30 -7 67 -15 83 -17 33 -70 76 -100 82 -20 3 -20 13 -26 878 -4 657
-8 886 -18 920 -38 137 -157 322 -267 415 -91 78 -206 154 -308 206 l-103 53
-6 215 c-8 257 -7 829 2 991 5 91 9 115 21 117 98 12 140 39 171 108 46 101 7
204 -101 261 -34 18 -89 19 -1425 20 -764 1 -1399 0 -1410 -3z m1980 -46 c671
-2 733 -3 757 -19 57 -38 39 -126 -31 -149 -24 -8 -409 -12 -1392 -13 l-1357
-1 -26 24 c-18 17 -26 35 -26 57 0 38 27 107 39 99 5 -3 18 -2 29 2 12 5 303
7 649 5 345 -1 957 -3 1358 -5z m373 -938 l2 -592 -32 6 c-18 3 -96 19 -173
36 -77 16 -168 33 -202 37 l-63 7 0 119 c0 105 -3 123 -21 149 -28 39 -82 60
-149 59 -30 -1 -67 -1 -82 -1 l-28 1 0 140 0 140 85 0 c140 0 183 29 192 129
l6 61 -42 40 -42 40 -405 0 c-447 0 -448 0 -480 -62 -23 -44 -14 -121 17 -154
41 -44 72 -54 164 -54 l85 0 0 -140 c0 -126 -2 -140 -17 -141 -10 -1 -51 -3
-90 -4 -89 -3 -127 -18 -153 -60 -17 -27 -20 -50 -20 -147 l0 -115 -71 -7
c-77 -8 -198 -31 -207 -40 -3 -3 1 -6 9 -6 22 0 49 -36 37 -48 -21 -21 -1 -38
41 -35 22 1 43 -3 47 -8 3 -5 14 -7 25 -4 23 8 26 -10 3 -19 -24 -9 -46 -7
-39 4 4 6 -10 10 -35 10 -25 0 -39 -4 -35 -10 3 -5 1 -10 -4 -10 -6 0 -11 5
-11 10 0 6 -8 10 -18 10 -28 0 -34 11 -14 26 24 18 11 25 -26 15 -23 -7 -32
-6 -32 2 0 8 -3 8 -9 -1 -6 -10 -10 -10 -21 3 -7 8 -19 15 -27 15 -8 0 -11 5
-8 10 4 7 -7 8 -33 4 l-39 -6 -7 56 c-3 31 -6 295 -6 586 1 441 3 531 15 537
7 5 440 7 962 6 l948 -3 3 -591z m-1343 -519 c-14 -13 -17 -13 -25 0 -5 8 -10
11 -10 5 0 -5 -13 -10 -30 -10 -16 0 -30 3 -30 6 0 14 17 19 62 17 43 -2 46
-4 33 -18z m1 -57 c-8 -9 -46 18 -40 28 4 6 13 4 25 -7 11 -9 17 -19 15 -21z
m309 7 c20 -15 26 -40 12 -51 -4 -3 0 -12 9 -20 10 -8 15 -9 11 -3 -5 8 15 11
66 9 70 -2 72 -2 70 -27 -1 -18 6 -29 22 -36 16 -7 26 -8 30 -1 4 5 10 7 15 4
5 -3 2 -14 -7 -25 -13 -15 -19 -16 -25 -7 -4 7 -8 7 -8 1 0 -16 52 -74 61 -68
15 9 10 21 -11 27 -21 5 -28 37 -9 37 6 0 9 -6 6 -14 -4 -10 1 -13 17 -12 19
2 22 -1 19 -23 -4 -22 -2 -24 9 -11 15 17 43 26 34 11 -3 -5 6 -18 21 -29 24
-18 26 -22 15 -43 -10 -20 -11 -20 -7 -3 3 13 -2 27 -16 40 -20 18 -21 18 -35
0 -12 -17 -17 -18 -39 -6 -27 14 -49 5 -25 -11 12 -7 11 -8 -5 -6 -11 1 -26 7
-34 11 -11 7 -13 5 -9 -6 5 -11 0 -14 -18 -10 -13 2 -23 9 -22 16 2 6 -2 12
-7 14 -6 1 -10 -1 -10 -5 0 -5 -4 -14 -8 -21 -5 -7 -2 -14 8 -18 11 -4 14 -13
9 -28 -6 -21 -6 -21 15 2 25 25 36 28 28 8 -3 -7 0 -19 6 -25 8 -8 7 -11 -6
-12 -25 -2 -31 -4 -44 -12 -9 -5 -13 -3 -13 8 0 9 -4 14 -9 11 -5 -3 -11 4
-14 16 -4 12 -9 19 -12 16 -4 -3 -1 -16 5 -28 6 -12 10 -24 7 -26 -8 -9 -82
24 -79 36 4 17 -31 8 -35 -10 -4 -12 -3 -12 5 -1 8 10 13 8 26 -10 9 -13 20
-22 24 -20 4 3 7 -2 8 -10 0 -8 -1 -9 -3 -2 -2 7 -10 10 -18 7 -7 -3 -27 2
-44 11 -22 11 -31 12 -31 4 0 -7 -3 -10 -6 -6 -3 3 -5 8 -4 12 2 11 -33 34
-53 35 -10 0 -15 -4 -12 -10 3 -6 -1 -7 -10 -4 -9 4 -14 12 -11 19 3 8 -2 16
-10 19 -10 4 -13 -1 -11 -17 2 -12 2 -17 0 -12 -2 6 -13 16 -25 24 -16 10 -22
10 -28 0 -10 -15 -1 -41 11 -33 5 3 6 11 3 17 -4 8 -2 7 7 -1 23 -21 -9 -34
-42 -17 -14 8 -30 11 -35 7 -5 -4 -3 0 3 8 10 13 8 18 -6 27 -23 14 -46 74
-28 70 7 -1 11 4 10 11 -2 6 4 12 12 12 8 0 15 -4 15 -10 0 -5 5 -10 10 -10
14 0 13 13 -4 35 -8 11 -25 18 -44 17 -18 0 -34 4 -37 9 -4 5 -2 9 4 9 5 0 8
11 5 25 -4 21 -1 25 22 25 18 0 24 4 21 13 -7 19 8 41 22 33 6 -4 11 -14 11
-22 0 -22 16 -17 40 14 l21 27 -5 -30 c-5 -24 -4 -27 4 -12 6 9 16 17 22 17 6
0 5 -7 -3 -17 -13 -15 -12 -15 7 -5 11 6 37 9 57 8 20 -2 37 1 37 5 0 5 -4 10
-10 10 -5 1 -15 2 -22 3 -23 2 -18 21 6 21 13 0 23 -2 21 -5 -2 -3 3 -14 10
-24 10 -13 20 -16 32 -11 10 5 21 7 26 7 4 -1 7 3 7 9 0 6 -9 9 -19 6 -19 -5
-38 19 -26 31 3 3 5 1 5 -5 0 -15 28 -12 34 4 3 8 -2 13 -14 13 -10 0 -22 5
-25 10 -9 14 27 7 50 -10z m-381 -15 c10 -11 23 -19 28 -17 5 1 7 -2 3 -8 -3
-5 -2 -10 4 -10 5 0 15 8 21 18 10 15 11 14 7 -5 -3 -13 -1 -23 4 -23 5 0 9
-4 9 -10 0 -5 -8 -10 -18 -10 -10 0 -24 -6 -31 -12 -9 -9 -12 -9 -7 -1 3 6 3
13 -1 16 -5 2 -2 2 5 0 8 -2 5 8 -8 27 -14 20 -26 27 -38 23 -9 -3 -14 -3 -10
2 4 4 3 14 -4 22 -19 23 14 12 36 -12z m489 -4 c-3 -11 -12 -22 -20 -25 -8 -3
-11 -1 -8 4 3 6 2 10 -4 10 -5 0 -13 -5 -16 -10 -8 -13 -25 -3 -25 13 0 7 4 6
10 -3 9 -13 14 -8 12 11 -1 4 8 5 18 2 11 -3 20 0 20 6 0 6 4 11 9 11 5 0 7
-9 4 -19z m-246 -11 c-1 -20 -17 -29 -17 -10 0 5 -7 7 -15 4 -8 -4 -15 -3 -15
0 0 5 22 17 47 25 1 1 1 -8 0 -19z m320 -2 c-3 -8 -6 -5 -6 6 -1 11 2 17 5 13
3 -3 4 -12 1 -19z m-416 -8 c6 0 7 5 4 10 -3 6 -1 10 4 10 13 0 14 -10 2 -29
-11 -17 -31 -6 -30 17 0 11 3 12 6 5 2 -7 9 -13 14 -13z m369 6 c0 -3 -4 -8
-10 -11 -5 -3 -10 -1 -10 4 0 6 5 11 10 11 6 0 10 -2 10 -4z m-530 -10 c0 -3
-4 -8 -10 -11 -5 -3 -10 -1 -10 4 0 6 5 11 10 11 6 0 10 -2 10 -4z m641 -29
c-1 -4 -1 -13 -1 -21 0 -8 -9 -14 -19 -13 -11 0 -17 5 -15 9 3 4 -2 8 -10 8
-9 0 -16 5 -16 10 0 17 28 11 40 -7 10 -16 11 -15 6 5 -2 13 0 22 6 20 5 -2 9
-7 9 -11z m-691 -23 c-12 -13 -7 -18 13 -15 5 1 6 -3 2 -9 -9 -15 -34 -12 -51
5 -14 13 -14 15 1 15 9 0 14 4 11 8 -2 4 4 9 15 9 17 2 18 -1 9 -13z m-52 -39
c3 -11 0 -15 -7 -10 -6 3 -9 10 -6 15 3 4 0 11 -5 13 -6 3 -5 4 2 3 7 -1 15
-11 16 -21z m-100 -20 c-3 -3 -9 2 -12 12 -6 14 -5 15 5 6 7 -7 10 -15 7 -18z
m182 16 c0 -5 8 -12 18 -15 10 -3 7 -4 -7 -3 -24 2 -44 27 -22 27 6 0 11 -4
11 -9z m58 -22 c-3 -8 -7 -3 -11 10 -4 17 -3 21 5 13 5 -5 8 -16 6 -23z m642
21 c0 -5 -5 -10 -11 -10 -5 0 -7 5 -4 10 3 6 8 10 11 10 2 0 4 -4 4 -10z
m-737 -15 c-3 -9 -8 -14 -10 -11 -3 3 -2 9 2 15 9 16 15 13 8 -4z m27 -39 c23
-3 46 -3 53 1 18 11 58 10 54 -2 -2 -5 -16 -9 -30 -8 -36 3 -34 -12 3 -34 17
-9 30 -23 30 -29 0 -7 5 -14 12 -16 6 -2 11 -28 12 -64 1 -48 -5 -68 -27 -106
-32 -56 -64 -82 -172 -138 -264 -140 -359 -211 -599 -448 -210 -208 -266 -244
-374 -243 -107 0 -198 63 -222 153 -14 51 -14 144 0 203 29 122 139 305 241
401 213 201 552 338 849 343 52 1 96 6 98 11 2 6 10 4 17 -4 8 -7 32 -16 55
-20z m967 17 c-4 -3 -2 -12 4 -20 9 -9 8 -13 0 -13 -6 0 -11 5 -11 11 0 6 -9
9 -20 6 -11 -3 -23 0 -27 5 -3 6 -2 8 3 5 6 -3 16 -2 24 4 17 10 37 12 27 2z
m-167 -28 c0 -7 4 -15 10 -17 5 -2 6 -9 1 -17 -14 -21 -33 -2 -26 26 4 18 2
23 -6 17 -8 -4 -9 -3 -5 5 9 14 26 5 26 -14z m63 -25 c3 -10 0 -21 -7 -24 -8
-3 -7 -7 3 -14 10 -7 7 -9 -12 -9 -18 0 -25 5 -24 17 0 10 7 16 13 13 8 -3 11
2 7 16 -3 12 -1 21 5 21 5 0 12 -9 15 -20z m77 -13 c0 -4 -6 -2 -14 5 -8 7
-12 17 -9 22 5 8 23 -12 23 -27z m-30 -7 c0 -5 -5 -10 -11 -10 -5 0 -7 5 -4
10 3 6 8 10 11 10 2 0 4 -4 4 -10z m-156 -32 c-9 -15 -22 -8 -19 10 2 9 4 19
4 22 1 3 5 -2 10 -10 6 -8 7 -18 5 -22z m-118 -35 c-11 -11 -19 6 -11 24 8 17
8 17 12 0 3 -10 2 -21 -1 -24z m49 27 c4 -6 12 -10 18 -9 7 1 21 1 32 -1 l20
-1 -20 -8 c-12 -5 -28 -4 -40 2 -11 6 -26 10 -32 9 -7 -2 -13 2 -13 8 0 13 27
13 35 0z m-8 -46 c-9 -9 -28 6 -21 18 4 6 10 6 17 -1 6 -6 8 -13 4 -17z m-382
-4 c3 -5 1 -10 -4 -10 -6 0 -11 5 -11 10 0 6 2 10 4 10 3 0 8 -4 11 -10z m55
0 c0 -5 -2 -10 -4 -10 -3 0 -8 5 -11 10 -3 6 -1 10 4 10 6 0 11 -4 11 -10z
m64 -28 c3 -5 -1 -9 -9 -9 -8 0 -12 4 -9 9 3 4 7 8 9 8 2 0 6 -4 9 -8z m101
-2 c3 -5 1 -10 -4 -10 -6 0 -11 5 -11 10 0 6 2 10 4 10 3 0 8 -4 11 -10z m5
-965 c282 -30 448 -83 665 -213 250 -150 459 -420 553 -713 35 -107 49 -180
63 -314 5 -49 13 -91 18 -93 27 -9 61 -46 61 -66 0 -27 -27 -66 -46 -66 -18 0
-34 -40 -34 -84 0 -46 -34 -200 -65 -292 -41 -121 -147 -318 -225 -416 -157
-198 -436 -379 -679 -444 -192 -51 -267 -57 -711 -62 -449 -4 -523 1 -630 41
-96 36 -189 140 -211 237 -5 19 -9 231 -10 470 0 239 -3 450 -6 468 l-5 32
-192 1 c-105 1 -269 4 -364 8 l-174 6 -29 33 c-37 41 -38 84 -4 117 29 30 2
28 427 25 l336 -2 7 43 c3 24 5 260 3 524 -2 393 0 486 11 515 56 139 156 214
329 245 101 18 741 19 912 0z"/>
<path d="M4755 7097 c-27 -16 -30 -37 -5 -37 11 0 20 7 20 15 0 9 6 12 15 9
11 -5 13 -2 9 10 -7 19 -12 19 -39 3z"/>
<path d="M4840 7100 c0 -5 7 -10 15 -10 8 0 15 5 15 10 0 6 -7 10 -15 10 -8 0
-15 -4 -15 -10z"/>
<path d="M5046 7097 c3 -10 9 -15 12 -12 3 3 0 11 -7 18 -10 9 -11 8 -5 -6z"/>
<path d="M5100 7096 c0 -2 7 -6 15 -10 8 -3 15 -1 15 4 0 6 -7 10 -15 10 -8 0
-15 -2 -15 -4z"/>
<path d="M4900 7080 c0 -6 7 -10 15 -10 8 0 15 -4 15 -9 0 -5 7 -11 14 -14 10
-4 13 -1 10 7 -6 17 -54 39 -54 26z"/>
<path d="M5200 7056 c0 -2 7 -9 15 -16 9 -7 15 -8 15 -2 0 5 -7 12 -15 16 -8
3 -15 4 -15 2z"/>
<path d="M5131 7004 c0 -11 3 -14 6 -6 3 7 2 16 -1 19 -3 4 -6 -2 -5 -13z"/>
<path d="M4812 6989 c-7 -11 -11 -23 -9 -25 7 -7 29 24 25 36 -2 6 -9 1 -16
-11z"/>
<path d="M5060 7006 c0 -2 7 -6 15 -10 8 -3 15 -1 15 4 0 6 -7 10 -15 10 -8 0
-15 -2 -15 -4z"/>
<path d="M5226 6998 c5 -8 2 -9 -10 -5 -9 4 -15 3 -11 -2 3 -6 14 -9 25 -8 14
1 16 4 8 14 -13 16 -22 17 -12 1z"/>
<path d="M4766 6963 c-6 -14 -5 -15 5 -6 7 7 10 15 7 18 -3 3 -9 -2 -12 -12z"/>
<path d="M4835 6969 c-4 -6 -5 -12 -2 -15 2 -3 7 2 10 11 7 17 1 20 -8 4z"/>
<path d="M5093 6965 c0 -8 4 -12 9 -9 5 3 6 10 3 15 -9 13 -12 11 -12 -6z"/>
<path d="M4795 6940 c-3 -6 1 -7 9 -4 18 7 21 14 7 14 -6 0 -13 -4 -16 -10z"/>
<path d="M5044 6926 c1 -20 4 -22 19 -15 24 13 42 2 26 -17 -6 -8 -9 -17 -5
-21 3 -3 6 -1 6 5 0 6 6 9 13 6 8 -3 13 3 13 16 0 11 -7 21 -16 22 -8 0 -22 2
-30 2 -8 1 -14 7 -12 14 1 7 -2 12 -7 12 -5 0 -8 -11 -7 -24z"/>
<path d="M5000 6911 c0 -5 5 -13 10 -16 6 -3 10 -2 10 4 0 5 -4 13 -10 16 -5
3 -10 2 -10 -4z"/>
<path d="M4626 5142 c-4 -7 -9 -439 -6 -584 l0 -28 500 0 500 0 0 34 c0 123
-68 290 -156 385 -115 125 -235 176 -449 191 -164 12 -382 13 -389 2z"/>
<path d="M4619 4378 c-1 -2 -3 -87 -5 -190 l-3 -187 35 -30 c48 -43 119 -77
210 -102 104 -28 297 -24 388 9 138 50 247 140 300 247 29 60 76 209 76 244 0
8 -148 11 -500 11 -275 0 -501 -1 -501 -2z"/>
</g>
</svg>
