<?xml version="1.0" encoding="UTF-8"?>
<svg version="1.1" xmlns="http://www.w3.org/2000/svg" width="1024" height="1024">
<path d="M0 0 C337.92 0 675.84 0 1024 0 C1024 337.92 1024 675.84 1024 1024 C686.08 1024 348.16 1024 0 1024 C0 686.08 0 348.16 0 0 Z " fill="#294557" transform="translate(0,0)"/>
<path d="M0 0 C4.30075804 0.00477536 8.60147323 -0.00781637 12.90221703 -0.01801741 C21.30496779 -0.03512615 29.70764351 -0.03606197 38.11040715 -0.03080451 C44.94714288 -0.02674664 51.78385659 -0.02822546 58.62059128 -0.03355277 C59.59734252 -0.03430119 60.57409376 -0.03504961 61.58044353 -0.03582071 C63.56535056 -0.03735235 65.55025759 -0.0388907 67.53516462 -0.04043568 C86.10753912 -0.0541321 104.67987139 -0.04874323 123.25224491 -0.03725047 C140.20188787 -0.02732159 157.15142161 -0.0402579 174.10104773 -0.06418466 C191.55251182 -0.08863209 209.00392516 -0.09816966 226.45540601 -0.09153193 C236.23403245 -0.08805216 246.01257497 -0.09018918 255.79118836 -0.10778296 C264.1154681 -0.12257578 272.43960481 -0.12304864 280.76388196 -0.10571205 C285.00153078 -0.09725744 289.23892489 -0.09491486 293.47655976 -0.1103636 C331.62620301 -0.23908722 362.5204143 5.97910396 391.20589745 32.96933305 C410.76844304 53.05395599 418.54836987 78.80242138 418.46659386 106.3396486 C418.46962151 107.80377134 418.47351404 109.26789249 418.47818643 110.7320109 C418.48839622 114.71933599 418.48630269 118.70657045 418.48200583 122.69390273 C418.47952575 127.00827702 418.48856861 131.32263021 418.49604332 135.63699663 C418.5087569 144.07550577 418.51058819 152.51398304 418.50824306 160.95250014 C418.50645599 167.81561478 418.50821788 174.67871979 418.5124675 181.54183328 C418.51306269 182.52070559 418.51365788 183.49957789 418.51427111 184.50811299 C418.51548293 186.49705635 418.51669706 188.48599971 418.51791348 190.47494306 C418.52877616 209.10436243 418.52663257 227.73376368 418.52052864 246.36318406 C418.51536069 263.38116882 418.52661398 280.39909633 418.54562686 297.41706977 C418.56502974 314.91919606 418.57325696 332.4212953 418.56950361 349.92343241 C418.56759527 359.7382901 418.5700432 369.55309906 418.58421814 379.36794794 C418.59616419 387.7235773 418.59750081 396.07912795 418.58542798 404.43475846 C418.57956184 408.69196732 418.57837664 412.94903241 418.59043038 417.20623147 C418.60136585 421.11411788 418.59809606 425.02174183 418.58416869 428.92961635 C418.58154266 430.33259863 418.58382128 431.73560199 418.59190456 433.13856343 C418.66318753 446.44965351 416.87710058 459.48171801 412.08089745 471.96933305 C411.78304345 472.75815874 411.48518944 473.54698442 411.17830956 474.35971391 C400.82689642 500.67187629 380.30820861 521.5411002 354.6953994 533.13534868 C339.53491028 539.6942404 324.6579963 541.7145262 308.24184716 541.67425859 C306.77431193 541.67800401 305.30677869 541.68260905 303.83924854 541.68798923 C299.84245693 541.70012422 295.84574961 541.69997011 291.84894383 541.69760048 C287.52432217 541.6971899 283.19972667 541.70825429 278.87511742 541.71771562 C270.41622345 541.73427368 261.95735736 541.73982278 253.49844852 541.74094038 C246.61817958 541.7418932 239.73791978 541.74601515 232.85765374 541.75234163 C213.32041118 541.76993886 193.78319054 541.77918273 174.24594 541.77768068 C172.66860917 541.77756081 172.66860917 541.77756081 171.05941308 541.77743852 C170.00656501 541.77735676 168.95371695 541.777275 167.8689644 541.77719076 C150.80960769 541.77637801 133.7503393 541.79551702 116.69100812 541.82371525 C99.14480565 541.85248785 81.59864619 541.86625318 64.05241954 541.8645277 C54.21347789 541.86386538 44.37462886 541.86928871 34.53570855 541.8908838 C26.15886581 541.90915315 17.78215773 541.91339579 9.40530363 541.89986496 C5.13780142 541.8933646 0.8705571 541.89311111 -3.39692008 541.91057146 C-36.18427551 542.03633194 -36.18427551 542.03633194 -49.79410255 537.40683305 C-50.952047 537.02871665 -52.10999145 536.65060026 -53.30302513 536.26102579 C-79.52375672 527.3161255 -100.86668889 507.84851989 -113.60660255 483.46933305 C-124.54940791 460.34782903 -125.2454066 437.79339786 -125.18627656 412.74004388 C-125.17942874 408.4407321 -125.18999536 404.14145558 -125.19821632 399.84215105 C-125.21149494 391.4416043 -125.20870235 383.04113837 -125.1999784 374.64058857 C-125.19317946 367.80855431 -125.19229464 360.97654255 -125.19554985 354.14450586 C-125.19600954 353.16895087 -125.19646924 352.19339589 -125.19694287 351.18827863 C-125.19790213 349.20593841 -125.19887477 347.22359819 -125.19986065 345.24125797 C-125.20839722 326.69145046 -125.19860744 308.14168756 -125.18245955 289.59188736 C-125.16905584 273.70295046 -125.17138827 257.81407932 -125.18521583 241.9251436 C-125.20129869 223.43625787 -125.20757563 204.94741115 -125.19837904 186.4585194 C-125.19742347 184.48412777 -125.19648036 182.50973613 -125.19554985 180.53534448 C-125.19508702 179.56411563 -125.19462419 178.59288678 -125.19414734 177.59222675 C-125.19156572 170.77422865 -125.19591048 163.95625545 -125.20298851 157.1382612 C-125.21143374 148.82115085 -125.20906004 140.50412537 -125.19314627 132.18702465 C-125.18530438 127.95004438 -125.18210162 123.71320519 -125.19209373 119.47622621 C-125.20112651 115.58699709 -125.19596897 111.69803794 -125.18016107 107.80883283 C-125.17529755 105.75860841 -125.18493225 103.70836479 -125.19533277 101.65816098 C-125.01420233 72.61301342 -113.40029848 48.46592148 -93.36441505 27.91464555 C-83.35081619 18.42635024 -71.49728075 11.64054247 -58.79410255 6.40683305 C-58.07480567 6.10132524 -57.3555088 5.79581743 -56.61441505 5.4810518 C-38.72126443 -1.30720573 -18.791971 -0.03522512 0 0 Z " fill="#F8F8F8" transform="translate(362.7941025495529,235.5931669473648)"/>
<path d="M0 0 C1.11251884 -0.0098568 1.11251884 -0.0098568 2.24751282 -0.01991272 C4.70765277 -0.03965949 7.16773159 -0.05131233 9.62792969 -0.0612793 C10.88820606 -0.06739259 10.88820606 -0.06739259 12.17394257 -0.07362938 C16.62230687 -0.09449762 21.07064028 -0.10879514 25.51904297 -0.11816406 C30.11024133 -0.12922035 34.70095393 -0.16360878 39.29198074 -0.20333576 C42.82479746 -0.22950574 46.35749862 -0.2378563 49.89040375 -0.24144554 C51.58245875 -0.24631181 53.27450857 -0.25792703 54.96646881 -0.27648354 C57.33871179 -0.30088029 59.70970074 -0.29990935 62.08203125 -0.29296875 C62.77732437 -0.30577881 63.47261749 -0.31858887 64.1889801 -0.33178711 C69.16496634 -0.27889393 71.9751468 1.05357256 75.79980469 4.17700195 C78.26086014 7.86858513 78.05556261 10.64323749 77.99511719 14.9074707 C77.99228729 15.65789139 77.9894574 16.40831207 77.98654175 17.18147278 C77.97535531 19.5759787 77.95025396 21.97010927 77.92480469 24.36450195 C77.91477288 25.98884551 77.90564738 27.61319493 77.89746094 29.23754883 C77.87542105 33.21751095 77.84090209 37.19719283 77.79980469 41.17700195 C78.88551758 41.16024414 79.97123047 41.14348633 81.08984375 41.1262207 C93.09871442 41.29059587 103.60933871 48.30951681 112.04589844 56.3059082 C125.27785467 70.28825893 127.26408528 85.3938191 127.09277344 103.7512207 C127.08716739 105.52911519 127.08290207 107.30701436 127.07991028 109.08491516 C127.06854084 113.72916814 127.03914314 118.3731327 127.00579834 123.01727295 C126.97492563 127.77034607 126.96136844 132.52346651 126.94628906 137.27661133 C126.91426467 146.57686718 126.86316575 155.87691044 126.79980469 165.17700195 C127.3753006 165.16811951 127.95079651 165.15923706 128.54373169 165.15008545 C134.54598027 165.06143294 140.54804217 165.00119359 146.55078125 164.95727539 C148.7894649 164.93718879 151.02809627 164.90991415 153.26660156 164.87524414 C156.48873818 164.82659732 159.7101797 164.80400321 162.93261719 164.78637695 C163.9297171 164.76573181 164.92681702 164.74508667 165.95413208 164.72381592 C171.70734772 164.72196781 175.40669686 165.0601203 179.79980469 169.17700195 C182.60420273 173.7602289 183.2419349 177.62294398 183.21972656 182.89135742 C183.22819611 183.64016174 183.23666565 184.38896606 183.24539185 185.16046143 C183.26868205 187.6218796 183.26978589 190.08266968 183.26855469 192.54418945 C183.2756615 194.26523078 183.28336126 195.98626975 183.29162598 197.70730591 C183.30505275 201.31006459 183.30664789 204.9126042 183.30078125 208.51538086 C183.2948892 213.11767826 183.32546397 217.71891927 183.36589813 222.3210125 C183.39183022 225.87453816 183.39464754 229.42781138 183.39100647 232.98141861 C183.39269282 234.67739642 183.40228842 236.3733865 183.42015076 238.06927109 C183.5736255 254.44230306 183.5736255 254.44230306 179.24905396 259.81758118 C173.82465234 264.90576333 168.17554437 264.58149494 161.15136719 264.4699707 C160.13883881 264.46572586 159.12631042 264.46148102 158.08309937 264.45710754 C154.8633922 264.44037497 151.64432124 264.40273221 148.42480469 264.36450195 C146.23601167 264.34944813 144.0472088 264.33576095 141.85839844 264.32348633 C136.50509422 264.29304677 131.15315784 264.23431382 125.79980469 264.17700195 C125.79980469 272.42700195 125.79980469 280.67700195 125.79980469 289.17700195 C64.08980469 289.17700195 2.37980469 289.17700195 -61.20019531 289.17700195 C-61.20019531 280.92700195 -61.20019531 272.67700195 -61.20019531 264.17700195 C-64.59558594 264.23500977 -67.99097656 264.29301758 -71.48925781 264.3527832 C-74.78562078 264.391801 -78.08195782 264.42214737 -81.37841797 264.45166016 C-83.66564489 264.47677137 -85.95279182 264.51086711 -88.23974609 264.55419922 C-91.53145097 264.61499777 -94.82209301 264.64324635 -98.11425781 264.6652832 C-99.64271835 264.70399284 -99.64271835 264.70399284 -101.20205688 264.7434845 C-109.14852297 264.7466088 -109.14852297 264.7466088 -112.83056641 261.77148438 C-116.58772071 257.6578146 -116.36877071 254.60782046 -116.40893555 249.25830078 C-116.41871933 248.44019928 -116.42850311 247.62209778 -116.43858337 246.77920532 C-116.4685647 244.06416455 -116.48993276 241.34917324 -116.50878906 238.6340332 C-116.51536089 237.70683661 -116.52193272 236.77964001 -116.52870369 235.82434654 C-116.56131262 230.91448874 -116.5857572 226.00465275 -116.60522461 221.09472656 C-116.62302546 217.03320661 -116.65782357 212.97238256 -116.70776367 208.91113281 C-116.76800122 204.00690324 -116.79870565 199.1033181 -116.80839729 194.19873619 C-116.81694894 192.33162633 -116.83575999 190.46453354 -116.86514091 188.59763527 C-116.90413288 185.97855624 -116.9050806 183.36197707 -116.8972168 180.74267578 C-116.91721741 179.97617203 -116.93721802 179.20966827 -116.95782471 178.41993713 C-116.88604658 173.07397685 -115.33069376 170.38302588 -111.68350315 166.50477123 C-109.01347595 164.1147211 -107.14179764 164.05416344 -103.65869141 164.06347656 C-102.71786713 164.06355209 -101.77704285 164.06362762 -100.80770874 164.06370544 C-99.78996368 164.06886673 -98.77221863 164.07402802 -97.72363281 164.0793457 C-96.16305649 164.08146812 -96.16305649 164.08146812 -94.57095337 164.08363342 C-91.2390051 164.08924329 -87.90712336 164.10179748 -84.57519531 164.11450195 C-82.31998795 164.11951568 -80.06477953 164.12407881 -77.80957031 164.12817383 C-72.27308918 164.13921592 -66.736647 164.15596368 -61.20019531 164.17700195 C-61.20907776 163.15129089 -61.21796021 162.12557983 -61.22711182 161.06878662 C-61.3085153 151.35993207 -61.36831233 141.65114758 -61.407444 131.94202805 C-61.42823897 126.95152208 -61.45640729 121.96129359 -61.50195312 116.97094727 C-61.54570136 112.1468766 -61.56939313 107.32307132 -61.57970428 102.49881744 C-61.58704399 100.66657591 -61.60137549 98.83434741 -61.62311554 97.00222015 C-61.81861954 79.82926152 -58.90512736 67.37975301 -46.88769531 54.42700195 C-38.44474231 46.47078238 -26.9181741 40.9668029 -15.20019531 41.17700195 C-15.23161621 40.2139917 -15.26303711 39.25098145 -15.29541016 38.25878906 C-15.40462363 34.66033849 -15.47310998 31.06203192 -15.52978516 27.46240234 C-15.55982106 25.90941678 -15.60066431 24.35659893 -15.65283203 22.80419922 C-16.12993037 8.23399004 -16.12993037 8.23399004 -12.30175781 3.6809082 C-7.95098095 0.16850522 -5.39998272 0.02064293 0 0 Z " fill="#0E51A1" transform="translate(478.2001953125,341.822998046875)"/>
<path d="M0 0 C1.11251884 -0.0098568 1.11251884 -0.0098568 2.24751282 -0.01991272 C4.70765277 -0.03965949 7.16773159 -0.05131233 9.62792969 -0.0612793 C10.88820606 -0.06739259 10.88820606 -0.06739259 12.17394257 -0.07362938 C16.62230687 -0.09449762 21.07064028 -0.10879514 25.51904297 -0.11816406 C30.11024133 -0.12922035 34.70095393 -0.16360878 39.29198074 -0.20333576 C42.82479746 -0.22950574 46.35749862 -0.2378563 49.89040375 -0.24144554 C51.58245875 -0.24631181 53.27450857 -0.25792703 54.96646881 -0.27648354 C57.33871179 -0.30088029 59.70970074 -0.29990935 62.08203125 -0.29296875 C62.77732437 -0.30577881 63.47261749 -0.31858887 64.1889801 -0.33178711 C69.16496634 -0.27889393 71.9751468 1.05357256 75.79980469 4.17700195 C78.26086014 7.86858513 78.05556261 10.64323749 77.99511719 14.9074707 C77.99228729 15.65789139 77.9894574 16.40831207 77.98654175 17.18147278 C77.97535531 19.5759787 77.95025396 21.97010927 77.92480469 24.36450195 C77.91477288 25.98884551 77.90564738 27.61319493 77.89746094 29.23754883 C77.87542105 33.21751095 77.84090209 37.19719283 77.79980469 41.17700195 C78.88551758 41.16024414 79.97123047 41.14348633 81.08984375 41.1262207 C93.09871442 41.29059587 103.60933871 48.30951681 112.04589844 56.3059082 C138.99933421 84.78789421 126.79980469 130.54634498 126.79980469 165.17700195 C49.24980469 165.17700195 -28.30019531 165.17700195 -108.20019531 165.17700195 C-108.20019531 164.84700195 -108.20019531 164.51700195 -108.20019531 164.17700195 C-92.69019531 164.17700195 -77.18019531 164.17700195 -61.20019531 164.17700195 C-61.24660156 158.2524707 -61.29300781 152.32793945 -61.34082031 146.22387695 C-61.36128009 142.45042172 -61.38053736 138.67703574 -61.39550781 134.90356445 C-61.41933618 128.92587929 -61.4473978 122.94844129 -61.50195312 116.97094727 C-61.54570136 112.1468766 -61.56939313 107.32307132 -61.57970428 102.49881744 C-61.58704399 100.66657591 -61.60137549 98.83434741 -61.62311554 97.00222015 C-61.81861954 79.82926152 -58.90512736 67.37975301 -46.88769531 54.42700195 C-38.44474231 46.47078238 -26.9181741 40.9668029 -15.20019531 41.17700195 C-15.23161621 40.2139917 -15.26303711 39.25098145 -15.29541016 38.25878906 C-15.40462363 34.66033849 -15.47310998 31.06203192 -15.52978516 27.46240234 C-15.55982106 25.90941678 -15.60066431 24.35659893 -15.65283203 22.80419922 C-16.12993037 8.23399004 -16.12993037 8.23399004 -12.30175781 3.6809082 C-7.95098095 0.16850522 -5.39998272 0.02064293 0 0 Z " fill="#C53031" transform="translate(478.2001953125,341.822998046875)"/>
<path d="M0 0 C61.38 0 122.76 0 186 0 C186 13.67567568 186 13.67567568 182 18 C163.79602495 35.66856402 129.1394054 36.08981104 105.58203125 36.23828125 C104.32653976 36.246353 103.07104828 36.25442474 101.7775116 36.26274109 C99.1293885 36.2764952 96.48138594 36.28753324 93.83325195 36.29516602 C91.17559499 36.3039462 88.51920829 36.32696492 85.86157227 36.35668945 C23.04914788 37.05656023 23.04914788 37.05656023 3.8125 18.25 C-1.86587871 12.11569308 0 10.82152869 0 0 Z " fill="#C53130" transform="translate(418,641)"/>
<path d="M0 0 C61.71 0 123.42 0 187 0 C187 8.25 187 16.5 187 25 C125.29 25 63.58 25 0 25 C0 16.75 0 8.5 0 0 Z " fill="#C13234" transform="translate(417,606)"/>
<path d="M0 0 C8.63975417 5.30593599 14.29413382 12.16577668 17 22 C18.20108658 30.59444176 16.27901298 39.08469214 11.375 46.25 C6.57074808 52.15373246 0.32587892 56.03930248 -7 58 C-15.41407353 58.74292641 -23.9628575 59.32317805 -31 54 C-31.62261719 53.55269531 -32.24523437 53.10539062 -32.88671875 52.64453125 C-37.12425953 49.33089873 -39.76064997 45.86229244 -42 41 C-42.2990625 40.40574219 -42.598125 39.81148438 -42.90625 39.19921875 C-45.98852844 32.30690168 -46.36314308 24.94924787 -43.8984375 17.80859375 C-39.42296813 8.24736373 -33.82331825 1.97203738 -24 -2 C-16.26820415 -4.57726528 -7.25279097 -3.61286416 0 0 Z " fill="#F9F4F2" transform="translate(524,428)"/>
<path d="M0 0 C1.31238144 0.00222061 2.62476288 0.00444122 3.97691345 0.00672913 C4.6988237 0.0065831 5.42073395 0.00643707 6.16452026 0.00628662 C8.56156879 0.00698583 10.95854054 0.01477857 13.35557556 0.02259827 C15.0132442 0.02446242 16.67091338 0.02588633 18.32858276 0.02688599 C22.69996145 0.03071139 27.07130712 0.04054186 31.44267273 0.05158997 C35.89996392 0.0618036 40.35726043 0.0663835 44.81455994 0.07142639 C53.56652993 0.08216412 62.31846672 0.09976109 71.07041931 0.12025452 C71.07041931 10.35025452 71.07041931 20.58025452 71.07041931 31.12025452 C60.84041931 31.12025452 50.61041931 31.12025452 40.07041931 31.12025452 C40.07041931 28.48025452 40.07041931 25.84025452 40.07041931 23.12025452 C42.38041931 22.46025452 44.69041931 21.80025452 47.07041931 21.12025452 C46.95690414 19.306999 46.8292897 17.49462095 46.69541931 15.68275452 C46.59100525 14.16875061 46.59100525 14.16875061 46.48448181 12.62416077 C46.34784119 11.7978717 46.21120056 10.97158264 46.07041931 10.12025452 C43.63325716 8.90167344 42.03767874 8.99099876 39.31651306 8.98744202 C38.38000916 8.98615295 37.44350525 8.98486389 36.47862244 8.98353577 C35.00812439 8.98933655 35.00812439 8.98933655 33.50791931 8.99525452 C32.52372009 8.99138733 31.53952087 8.98752014 30.52549744 8.98353577 C29.59028259 8.98482483 28.65506775 8.98611389 27.69151306 8.98744202 C26.82969421 8.98856995 25.96787537 8.98969788 25.0799408 8.99085999 C23.07251899 8.89808536 23.07251899 8.89808536 22.07041931 10.12025452 C21.99797878 12.1398965 21.98664743 14.16192575 22.00791931 16.18275452 C22.01694275 17.28748108 22.02596619 18.39220764 22.03526306 19.53041077 C22.04686462 20.3850592 22.05846619 21.23970764 22.07041931 22.12025452 C23.27698181 22.08931702 23.27698181 22.08931702 24.50791931 22.05775452 C27.07041931 22.12025452 27.07041931 22.12025452 28.07041931 23.12025452 C28.21157092 25.79084303 28.11289038 28.44457689 28.07041931 31.12025452 C23.67385759 31.14490955 19.27733211 31.16309294 14.88072205 31.17518616 C13.38397013 31.18022573 11.88722316 31.18705739 10.39048767 31.19569397 C8.24342124 31.2077761 6.09641969 31.21348643 3.94932556 31.21791077 C2.00908508 31.22576599 2.00908508 31.22576599 0.02964783 31.23377991 C-2.92958069 31.12025452 -2.92958069 31.12025452 -3.92958069 30.12025452 C-4.02961358 27.98672278 -4.06039116 25.8498791 -4.06239319 23.71400452 C-4.06368225 22.41334045 -4.06497131 21.11267639 -4.06629944 19.77259827 C-4.06420471 19.09181213 -4.06210999 18.411026 -4.05995178 17.70960999 C-4.05460309 15.62896937 -4.05989749 13.54854463 -4.06629944 11.46791077 C-4.06501038 10.1672467 -4.06372131 8.86658264 -4.06239319 7.52650452 C-4.06126526 6.32316467 -4.06013733 5.11982483 -4.05897522 3.88002014 C-3.8804071 0.07146531 -3.83302246 0.15733933 0 0 Z " fill="#FAF7F4" transform="translate(475.92958068847656,351.87974548339844)"/>
<path d="M0 0 C24.58823529 0 24.58823529 0 32 7 C37.07092336 14.24417623 36.76286478 22.46978475 36 31 C34.01223815 37.64872067 30.69013827 42.12586331 25 46 C21 48 21 48 0 48 C0 32.16 0 16.32 0 0 Z " fill="#F0F5F8" transform="translate(392,530)"/>
<path d="M0 0 C2.64 0 5.28 0 8 0 C8 15.84 8 31.68 8 48 C5.36 48 2.72 48 0 48 C0 47.34 0 46.68 0 46 C-0.55816406 46.3196875 -1.11632812 46.639375 -1.69140625 46.96875 C-5.69753679 48.75829054 -9.71671165 48.81091381 -14 48 C-17.23411083 45.68051327 -18.74793727 42.7561882 -20 39 C-20.1484944 36.38135839 -20.2310027 33.8067523 -20.25 31.1875 C-20.270625 30.48818359 -20.29125 29.78886719 -20.3125 29.06835938 C-20.34841802 24.2688144 -19.6117376 21.02936995 -17 17 C-14.77793687 14.7872342 -13.60586728 14.07927235 -10.4921875 13.671875 C-9.62851562 13.69765625 -8.76484375 13.7234375 -7.875 13.75 C-7.00617187 13.76546875 -6.13734375 13.7809375 -5.2421875 13.796875 C-3 14 -3 14 -1 15 C-0.67 10.05 -0.34 5.1 0 0 Z " fill="#EFF4F7" transform="translate(615,530)"/>
<path d="M0 0 C2.990625 -0.0825 5.98125 -0.165 9.0625 -0.25 C9.99070557 -0.28641602 10.91891113 -0.32283203 11.87524414 -0.36035156 C18.64583556 -0.45005702 22.58407936 1.04954547 27.77734375 5.53515625 C31.70537311 10.70640029 31.86061973 15.6792262 31 22 C29.10847247 27.67458259 25.34743962 31.32628019 20 34 C18.47851674 34.08372659 16.95344222 34.10730027 15.4296875 34.09765625 C14.62257324 34.09515869 13.81545898 34.09266113 12.98388672 34.09008789 C11.9579541 34.08098389 10.93202148 34.07187988 9.875 34.0625 C4.986875 34.0315625 4.986875 34.0315625 0 34 C0 22.78 0 11.56 0 0 Z " fill="#BE3B38" transform="translate(496,439)"/>
<path d="M0 0 C1.07080378 3.27633903 0.86644046 5.36968192 0.0769043 8.69799805 C-1.43479691 16.38371665 -1.26907808 24.03745109 -1.23046875 31.83203125 C-1.22927372 33.43861351 -1.22882447 35.04519649 -1.2290802 36.65177917 C-1.22752626 39.99763443 -1.21931764 43.34338104 -1.20581055 46.68920898 C-1.18875333 50.96719912 -1.18499886 55.24507114 -1.18575573 59.52309132 C-1.18548338 62.83199683 -1.1799928 66.14087679 -1.17275429 69.44977379 C-1.1695852 71.02735896 -1.16760435 72.604947 -1.16686058 74.18253517 C-1.16468213 76.38581877 -1.15590766 78.58897938 -1.14526367 80.79223633 C-1.14145187 82.04257156 -1.13764008 83.2929068 -1.13371277 84.58113098 C-1.05412863 88.45053098 -1.05412863 88.45053098 0 94 C89.595 94.495 89.595 94.495 181 95 C181.495 56.39 181.495 56.39 182 17 C182.66 17 183.32 17 184 17 C184 43.4 184 69.8 184 97 C106.45 97 28.9 97 -51 97 C-51 96.67 -51 96.34 -51 96 C-35.49 96 -19.98 96 -4 96 C-4.04640625 90.07546875 -4.0928125 84.1509375 -4.140625 78.046875 C-4.16108478 74.27341977 -4.18034204 70.50003379 -4.1953125 66.7265625 C-4.21914087 60.74887733 -4.24720249 54.77143934 -4.30175781 48.79394531 C-4.34550605 43.96987464 -4.36919781 39.14606937 -4.37950897 34.32181549 C-4.38684868 32.48957395 -4.40118017 30.65734546 -4.42292023 28.8252182 C-4.54040038 18.50582865 -4.27858803 9.62659566 0 0 Z " fill="#B1545F" transform="translate(421,410)"/>
<path d="M0 0 C4.03625076 1.34541692 4.85447953 3.85947465 6.6875 7.4375 C7.00783203 8.03626953 7.32816406 8.63503906 7.65820312 9.25195312 C10 13.71085421 10 13.71085421 10 16 C11.2065625 16.0928125 11.2065625 16.0928125 12.4375 16.1875 C17.1635451 17.26536993 20.87513427 19.51591419 25 22 C24 25 24 25 21.85546875 26.1328125 C20.97503906 26.46023438 20.09460938 26.78765625 19.1875 27.125 C18.31480469 27.45757812 17.44210937 27.79015625 16.54296875 28.1328125 C14 29 14 29 11.80078125 29.3046875 C9.75989981 29.85633196 9.75989981 29.85633196 8.9453125 32.19921875 C8.63335938 33.12347656 8.32140625 34.04773438 8 35 C6.98372238 36.95093708 5.94133262 38.88846506 4.875 40.8125 C4.33617187 41.78832031 3.79734375 42.76414062 3.2421875 43.76953125 C2.83226562 44.50558594 2.42234375 45.24164063 2 46 C0.515 45.505 0.515 45.505 -1 45 C-1.99737679 42.81805548 -2.92352203 40.60330889 -3.8125 38.375 C-7.13933986 30.80727943 -11.71938421 28.09411517 -19.18359375 25.0390625 C-20.11300781 24.69617188 -21.04242187 24.35328125 -22 24 C-22 23.34 -22 22.68 -22 22 C-20.23084525 21.01780373 -18.45961431 20.03934641 -16.6875 19.0625 C-15.70136719 18.51722656 -14.71523438 17.97195313 -13.69921875 17.41015625 C-11 16 -11 16 -8 15 C-6.37610029 12.3234298 -6.37610029 12.3234298 -4.9375 9.125 C-3.41438409 5.90824121 -1.97637575 2.96456363 0 0 Z " fill="#A7D6C9" transform="translate(636,380)"/>
<path d="M0 0 C3.48665715 2.37726624 4.96049365 4.02067864 6.75 7.875 C7.06915364 11.61218614 6.9336075 15.1110463 6.75 18.875 C0.15 18.875 -6.45 18.875 -13.25 18.875 C-11.23848737 25.64989892 -11.23848737 25.64989892 -8.25 26.875 C-4.39093603 27.04651395 -1.01873133 26.62874627 2.75 25.875 C3.75 26.875 3.75 26.875 3.8125 29.9375 C3.791875 30.906875 3.77125 31.87625 3.75 32.875 C-2.07194982 35.02659015 -7.18018307 35.42495325 -13.25 33.875 C-17.58671098 31.56861778 -19.78410911 28.50931873 -21.25 23.875 C-22.09541875 16.42641587 -22.37706745 9.51125139 -17.6640625 3.36328125 C-12.53071928 -2.03949158 -6.77805558 -2.34625001 0 0 Z " fill="#EDF3F6" transform="translate(546.25,544.125)"/>
<path d="M0 0 C8.91 0 17.82 0 27 0 C27 2.64 27 5.28 27 8 C20.73 8 14.46 8 8 8 C8 11.96 8 15.92 8 20 C13.28 20 18.56 20 24 20 C24 22.31 24 24.62 24 27 C18.72 27 13.44 27 8 27 C8 33.93 8 40.86 8 48 C5.36 48 2.72 48 0 48 C0 32.16 0 16.32 0 0 Z " fill="#F1F6F8" transform="translate(454,530)"/>
<path d="M0 0 C2.31 0 4.62 0 7 0 C7 0.99 7 1.98 7 3 C7.61875 2.505 8.2375 2.01 8.875 1.5 C13.17074289 -0.56195659 17.32863146 -1.06774138 22 0 C26.30132266 2.09708614 26.30132266 2.09708614 28 5 C28.75074722 9.94251559 28.56400039 14.8337067 28.375 19.8125 C28.34488122 21.18679094 28.31750872 22.56114499 28.29296875 23.93554688 C28.22230722 27.29196969 28.12367705 30.64518065 28 34 C25.36 34 22.72 34 20 34 C19.505 21.13 19.505 21.13 19 8 C11.73786479 7.57836298 11.73786479 7.57836298 8 9 C8 17.25 8 25.5 8 34 C5.36 34 2.72 34 0 34 C0 22.78 0 11.56 0 0 Z " fill="#F3F7F9" transform="translate(560,544)"/>
<path d="M0 0 C3.61743862 1.96599925 7.12731791 4.25463583 9 8 C9.6021891 12.59645605 10.06807191 17.11033432 7.73046875 21.24609375 C5.10738905 24.31592669 2.98138847 26.75054462 -1.171875 27.2734375 C-8.99106636 27.58146625 -8.99106636 27.58146625 -12.5 24.75 C-16.67525462 20.15721992 -17.55158869 16.67489577 -17.4609375 10.546875 C-16.6951155 6.31538397 -14.21271539 3.72165267 -11 1 C-7.47016603 -0.76491699 -3.8429663 -0.66489417 0 0 Z " fill="#A7D7C9" transform="translate(383,356)"/>
<path d="M0 0 C11 0 11 0 14.0625 1.75 C18.71279962 7.15034795 18.49216185 12.43860708 18.3203125 19.34375 C17.90176962 24.12126381 17.05732583 26.34819415 14 30 C10 32 10 32 0 32 C0 21.44 0 10.88 0 0 Z " fill="#1253A1" transform="translate(401,538)"/>
<path d="M0 0 C1 1 1 1 1.09765625 2.84765625 C1.06510417 4.8984375 1.03255208 6.94921875 1 9 C-0.093125 9.103125 -1.18625 9.20625 -2.3125 9.3125 C-6.45142684 10.05060404 -6.45142684 10.05060404 -9 13 C-9.50330762 15.41063442 -9.50330762 15.41063442 -9.51171875 18.10546875 C-9.54716797 19.08837891 -9.58261719 20.07128906 -9.61914062 21.08398438 C-9.65297852 22.62022461 -9.65297852 22.62022461 -9.6875 24.1875 C-9.72166016 25.22326172 -9.75582031 26.25902344 -9.79101562 27.32617188 C-9.87352642 29.8840066 -9.94266572 32.44149723 -10 35 C-12.97 35 -15.94 35 -19 35 C-19 23.78 -19 12.56 -19 1 C-16.03 1 -13.06 1 -10 1 C-9.67 1.66 -9.34 2.32 -9 3 C-8.443125 2.505 -7.88625 2.01 -7.3125 1.5 C-4.60483847 -0.25632099 -3.16620913 -0.34229288 0 0 Z " fill="#E8EFF5" transform="translate(503,543)"/>
<path d="M0 0 C61.38 0 122.76 0 186 0 C186 13.67567568 186 13.67567568 182 18 C168.7459943 30.86418201 144.42815528 34.71878601 126.65625 35.19921875 C123.23749659 35.01294052 121.87091582 34.60044852 119 33 C119.84425537 32.93268677 119.84425537 32.93268677 120.70556641 32.86401367 C132.03284887 31.93719405 142.94777206 30.72301268 154 28 C162.62576687 26 162.62576687 26 166 26 C166 25.34 166 24.68 166 24 C166.99 24 167.98 24 169 24 C169 23.34 169 22.68 169 22 C170.32 22 171.64 22 173 22 C173.33 21.01 173.66 20.02 174 19 C176.5625 17.8125 176.5625 17.8125 179 17 C179 16.34 179 15.68 179 15 C179.99 14.34 180.98 13.68 182 13 C183.01324326 10.59027402 183.01324326 10.59027402 183.6875 7.875 C183.93886719 6.96492187 184.19023438 6.05484375 184.44921875 5.1171875 C184.63097656 4.41851563 184.81273437 3.71984375 185 3 C182.05627154 1.52813577 179.07793698 1.84627696 175.85006714 1.84178162 C175.10515176 1.83684364 174.36023638 1.83190566 173.59274781 1.82681805 C171.08380685 1.81139696 168.57489157 1.80307 166.06591797 1.79467773 C164.27254 1.78510283 162.47916431 1.77509298 160.68579102 1.76467896 C155.80591431 1.73758181 150.92602788 1.71659834 146.04611731 1.69667697 C140.95049602 1.67484702 135.85490486 1.64744373 130.75930786 1.62062073 C121.10499824 1.5706533 111.45067194 1.52572953 101.79632962 1.48259836 C90.80735515 1.43326055 79.81841089 1.37832963 68.82946563 1.32291877 C46.21967193 1.20903657 23.60984926 1.10221115 1 1 C1.11601014 2.77023578 1.24475333 4.53964037 1.37890625 6.30859375 C1.44924072 7.29400146 1.5195752 8.27940918 1.59204102 9.29467773 C2.12209695 12.80966866 3.43257546 14.58817694 6 17 C6.66 17.66 7.32 18.32 8 19 C5 19 5 19 2.3125 16.8125 C0 13 0 13 0 0 Z " fill="#AF3F3E" transform="translate(418,641)"/>
<path d="M0 0 C61.38 0.33 122.76 0.66 186 1 C186 1.66 186 2.32 186 3 C124.62 3 63.24 3 0 3 C0 2.01 0 1.02 0 0 Z " fill="#2C4385" transform="translate(418,603)"/>
<path d="M0 0 C2.64 0 5.28 0 8 0 C8 11.22 8 22.44 8 34 C5.36 34 2.72 34 0 34 C0 22.78 0 11.56 0 0 Z " fill="#EEF4F7" transform="translate(510,544)"/>
<path d="M0 0 C2.1662868 2.1662868 1.23161742 6.93884217 1.25 9.9375 C1.270625 10.77474609 1.29125 11.61199219 1.3125 12.47460938 C1.31765625 13.27576172 1.3228125 14.07691406 1.328125 14.90234375 C1.34214355 16.00823853 1.34214355 16.00823853 1.35644531 17.13647461 C1.23881836 17.75143799 1.12119141 18.36640137 1 19 C-2.47042703 21.31361802 -3.91834173 21.51020728 -8 21 C-10.5295682 18.59512883 -10.98230738 17.14865271 -11.3984375 13.65234375 C-11.38683594 11.81349609 -11.38683594 11.81349609 -11.375 9.9375 C-11.38273438 8.70902344 -11.39046875 7.48054687 -11.3984375 6.21484375 C-11 3 -11 3 -9.734375 1.08203125 C-6.56748369 -0.8937095 -3.64949488 -0.23545128 0 0 Z " fill="#1D5CA5" transform="translate(614,551)"/>
<path d="M0 0 C4.30750548 0.35895879 5.74111588 1.30361588 8.75 4.3125 C10.19430855 7.20111709 10.12688506 9.10897701 9.75 12.3125 C7.3125 15.125 7.3125 15.125 4.75 17.3125 C4.42 17.6425 4.09 17.9725 3.75 18.3125 C1.07941149 18.45365161 -1.57432238 18.35497107 -4.25 18.3125 C-4.27684312 15.49993719 -4.29676188 12.68762759 -4.3125 9.875 C-4.32087891 9.07255859 -4.32925781 8.27011719 -4.33789062 7.44335938 C-4.3465143 5.39954779 -4.3022815 3.35566098 -4.25 1.3125 C-3.25 0.3125 -3.25 0.3125 0 0 Z " fill="#F5E8E5" transform="translate(508.25,446.6875)"/>
<path d="M0 0 C4.05671104 2.08317594 6.30287527 3.71252701 8 8 C8.23883856 11.68122908 8.17415368 15.31697214 8 19 C5.04160645 19.02689449 2.08345573 19.04678741 -0.875 19.0625 C-1.71675781 19.07087891 -2.55851563 19.07925781 -3.42578125 19.08789062 C-4.23144531 19.09111328 -5.03710938 19.09433594 -5.8671875 19.09765625 C-6.98262939 19.10551147 -6.98262939 19.10551147 -8.12060547 19.11352539 C-10 19 -10 19 -12 18 C-12 16.68 -12 15.36 -12 14 C-7.71 14 -3.42 14 1 14 C0.525625 13.071875 0.05125 12.14375 -0.4375 11.1875 C-2 8 -2 8 -3 5 C-2.67 4.34 -2.34 3.68 -2 3 C-1.34 3 -0.68 3 0 3 C0 2.01 0 1.02 0 0 Z " fill="#F3F7F9" transform="translate(545,544)"/>
<path d="M0 0 C1.31238144 0.00222061 2.62476288 0.00444122 3.97691345 0.00672913 C4.6988237 0.0065831 5.42073395 0.00643707 6.16452026 0.00628662 C8.56156879 0.00698583 10.95854054 0.01477857 13.35557556 0.02259827 C15.0132442 0.02446242 16.67091338 0.02588633 18.32858276 0.02688599 C22.69996145 0.03071139 27.07130712 0.04054186 31.44267273 0.05158997 C35.89996392 0.0618036 40.35726043 0.0663835 44.81455994 0.07142639 C53.56652993 0.08216412 62.31846672 0.09976109 71.07041931 0.12025452 C71.07041931 10.35025452 71.07041931 20.58025452 71.07041931 31.12025452 C60.84041931 31.12025452 50.61041931 31.12025452 40.07041931 31.12025452 C40.07041931 28.48025452 40.07041931 25.84025452 40.07041931 23.12025452 C40.40041931 23.12025452 40.73041931 23.12025452 41.07041931 23.12025452 C41.07041931 25.43025452 41.07041931 27.74025452 41.07041931 30.12025452 C50.64041931 30.12025452 60.21041931 30.12025452 70.07041931 30.12025452 C70.07041931 20.55025452 70.07041931 10.98025452 70.07041931 1.12025452 C60.97794903 1.20565916 51.88566918 1.29935813 42.79344368 1.4077816 C38.57183766 1.45778943 34.35025722 1.50411884 30.12852478 1.54212952 C26.05652392 1.57892596 21.98473473 1.62527006 17.91291428 1.67831802 C16.35717852 1.6968921 14.80139734 1.71198886 13.24559402 1.72359848 C11.07125791 1.74040984 8.89740978 1.76943111 6.72325134 1.80140686 C5.48415009 1.81473053 4.24504883 1.8280542 2.96839905 1.84178162 C-0.05572041 1.8222417 -0.05572041 1.8222417 -1.92958069 4.12025452 C-2.30165423 6.83641316 -2.30165423 6.83641316 -2.34364319 10.00306702 C-2.38231506 11.16966858 -2.42098694 12.33627014 -2.46083069 13.53822327 C-2.49176819 14.76154358 -2.52270569 15.98486389 -2.55458069 17.24525452 C-2.59325256 18.4763092 -2.63192444 19.70736389 -2.67176819 20.97572327 C-2.76628059 24.02374828 -2.85183563 27.07176314 -2.92958069 30.12025452 C-3.25958069 30.12025452 -3.58958069 30.12025452 -3.92958069 30.12025452 C-3.95423814 26.00852892 -3.97242027 21.89683174 -3.98451233 17.78504944 C-3.98955148 16.38530223 -3.99638285 14.98556032 -4.00502014 13.58583069 C-4.01710389 11.57779675 -4.02227876 9.56972494 -4.02723694 7.56166077 C-4.03247375 6.35195618 -4.03771057 5.14225159 -4.04310608 3.89588928 C-3.88678359 0.07388837 -3.84237395 0.15772319 0 0 Z " fill="#E9C4BE" transform="translate(475.92958068847656,351.87974548339844)"/>
<path d="M0 0 C2 2 2 2 2 5.1875 C0.44053387 11.13296462 -2.33574128 14.30002837 -7.50390625 17.59765625 C-23.30874412 26.00539993 -43.03720419 30.97874208 -61 30 C-63.22851562 28.98754883 -63.22851562 28.98754883 -65 28 C-64.15574463 27.93268677 -64.15574463 27.93268677 -63.29443359 27.86401367 C-51.96715113 26.93719405 -41.05222794 25.72301268 -30 23 C-21.37423313 21 -21.37423313 21 -18 21 C-18 20.34 -18 19.68 -18 19 C-17.01 19 -16.02 19 -15 19 C-15 18.34 -15 17.68 -15 17 C-13.68 17 -12.36 17 -11 17 C-10.505 15.515 -10.505 15.515 -10 14 C-7.4375 12.8125 -7.4375 12.8125 -5 12 C-5 11.34 -5 10.68 -5 10 C-4.01 9.34 -3.02 8.68 -2 8 C-1.21011855 6.04614933 -1.21011855 6.04614933 -0.8125 3.875 C-0.544375 2.59625 -0.27625 1.3175 0 0 Z " fill="#BA4142" transform="translate(602,646)"/>
<path d="M0 0 C12.9655572 -0.12000017 25.87638102 0.04943109 38.8293457 0.64428711 C46.40773061 0.97781452 53.9608066 1.07916867 61.5456543 0.96289062 C66.15163281 0.91147689 70.45586974 1.22858266 75 2 C75 2.33 75 2.66 75 3 C67.43606469 3.04676263 59.87214474 3.08208873 52.30809689 3.10362434 C48.79413103 3.113971 45.28026554 3.12795875 41.76635742 3.15087891 C37.70751089 3.17718164 33.64876636 3.18654792 29.58984375 3.1953125 C28.35483627 3.20563507 27.1198288 3.21595764 25.84739685 3.22659302 C17.05755329 3.22769942 8.67052483 2.34876424 0 1 C0 0.67 0 0.34 0 0 Z " fill="#B94143" transform="translate(462,674)"/>
<path d="M0 0 C3.375 0.875 3.375 0.875 5.375 2.875 C5.72814229 6.12390907 5.65283078 8.25396648 4.3125 11.25 C2.375 12.875 2.375 12.875 -1.125 13.375 C-4.625 12.875 -4.625 12.875 -6.5625 11.1875 C-7.83804072 8.41132314 -8.15326174 6.8936385 -7.625 3.875 C-5.27446179 0.30218192 -4.32956596 -0.14929538 0 0 Z " fill="#AAD5C9" transform="translate(633.625,476.125)"/>
<path d="M0 0 C1.875 1 1.875 1 3 3 C3.36095911 5.80173027 3.22716238 8.13775402 3 11 C1 13 1 13 -2.4375 13.3125 C-6 13 -6 13 -7.9375 12 C-9.74093769 8.60529375 -9.36262436 5.80755575 -9 2 C-5.53076119 -0.31282587 -4.07794425 -0.42478586 0 0 Z " fill="#ABD7CB" transform="translate(387,430)"/>
<path d="M0 0 C4.95 0 9.9 0 15 0 C15 2.31 15 4.62 15 7 C10.05 7 5.1 7 0 7 C0 4.69 0 2.38 0 0 Z " fill="#F4F8F9" transform="translate(433,556)"/>
<path d="M0 0 C6.27 0 12.54 0 19 0 C19 0.33 19 0.66 19 1 C17.35 1.33 15.7 1.66 14 2 C13.87625 2.969375 13.7525 3.93875 13.625 4.9375 C13.41875 5.948125 13.2125 6.95875 13 8 C10.15916359 9.42041821 8.14522722 9.31452272 5 9 C1.12666863 6.17351494 0.98782966 4.9391483 0 0 Z " fill="#2E69AB" transform="translate(533,563)"/>
<path d="M0 0 C0.92647011 3.31753401 0.88538315 5.22905242 0.06640625 8.58984375 C-1.56885182 16.85949896 -1.17593033 25.1727955 -1.0625 33.5625 C-1.02568109 36.81377007 -0.99544458 40.06500744 -0.97265625 43.31640625 C-0.96706696 44.08425446 -0.96147766 44.85210266 -0.95571899 45.64321899 C-0.94091684 51.15856103 -1.28303395 56.52549181 -2 62 C-2.33 62 -2.66 62 -3 62 C-3.07628992 54.45612085 -3.12870068 46.91234183 -3.16479492 39.36816406 C-3.17984779 36.80367312 -3.20029461 34.23920777 -3.22631836 31.67480469 C-3.26285467 27.98105537 -3.27976194 24.28764754 -3.29296875 20.59375 C-3.30845261 19.4538562 -3.32393646 18.3139624 -3.33988953 17.13952637 C-3.34124203 10.69004557 -2.70926451 5.8747604 0 0 Z " fill="#B4343A" transform="translate(421,410)"/>
<path d="M0 0 C-2.17532857 2.17532857 -3.10274469 2.3662254 -6 3 C-6.66 3.33 -7.32 3.66 -8 4 C-8.66 3.67 -9.32 3.34 -10 3 C-13.37822416 2.85624578 -15.77390955 2.92463652 -19 4 C-20.61178466 4.0597187 -22.22616394 4.05903477 -23.83862305 4.02172852 C-24.8194133 4.00163223 -25.80020355 3.98153595 -26.81071472 3.96083069 C-27.86704605 3.93379562 -28.92337738 3.90676056 -30.01171875 3.87890625 C-31.09508011 3.85529526 -32.17844147 3.83168427 -33.29463196 3.80735779 C-36.7590542 3.73070914 -40.2232536 3.64668961 -43.6875 3.5625 C-46.03449426 3.50928054 -48.38149943 3.45654014 -50.72851562 3.40429688 C-56.48581534 3.27509233 -62.24294918 3.13983367 -68 3 C-68 2.67 -68 2.34 -68 2 C-67.42529968 1.98969254 -66.85059937 1.97938507 -66.25848389 1.96876526 C-60.22268463 1.8597415 -54.1870063 1.74523456 -48.15136719 1.62768555 C-45.90529943 1.58464075 -43.65920531 1.54294742 -41.41308594 1.50268555 C-38.16593515 1.44423683 -34.91891338 1.38076626 -31.671875 1.31640625 C-30.68386902 1.29969376 -29.69586304 1.28298126 -28.67791748 1.26576233 C-22.64909635 1.14051761 -16.68274538 0.7757333 -10.67852783 0.21372986 C-7.10338502 -0.0715443 -3.58437669 -0.06893032 0 0 Z " fill="#E3A8A3" transform="translate(557,675)"/>
<path d="M0 0 C2.5625 0.5 2.5625 0.5 4.875 2.8125 C6.5625 5.5 6.5625 5.5 6.5625 8.5 C2.2725 8.5 -2.0175 8.5 -6.4375 8.5 C-4.9401738 1.01336898 -4.9401738 1.01336898 0 0 Z " fill="#225EA3" transform="translate(539.4375,549.5)"/>
<path d="M0 0 C0.66 0 1.32 0 2 0 C2 0.66 2 1.32 2 2 C2.99 2 3.98 2 5 2 C5 2.99 5 3.98 5 5 C4.34515625 4.7834375 3.6903125 4.566875 3.015625 4.34375 C-6.88662362 1.322725 -15.85082712 0.16307364 -25.2578125 5.125 C-27 6 -27 6 -29 6 C-28.67 4.68 -28.34 3.36 -28 2 C-18.31438749 -0.79584691 -9.95160817 -1.99032163 0 0 Z " fill="#B73E3F" transform="translate(521,424)"/>
<path d="M0 0 C3.29714793 0.32971479 4.6226839 0.6226839 7 3 C6.44444444 7.55555556 6.44444444 7.55555556 5 9 C2.5625 9.1875 2.5625 9.1875 0 9 C-2 7 -2 7 -2.25 4.5 C-2 2 -2 2 0 0 Z " fill="#E6EFF5" transform="translate(512,528)"/>
<path d="M0 0 C0.93199219 -0.00257813 1.86398437 -0.00515625 2.82421875 -0.0078125 C3.80003906 -0.00007813 4.77585937 0.00765625 5.78125 0.015625 C6.75707031 0.00789063 7.73289062 0.00015625 8.73828125 -0.0078125 C9.67027344 -0.00523437 10.60226562 -0.00265625 11.5625 0 C12.41908203 0.00225586 13.27566406 0.00451172 14.15820312 0.00683594 C16.28125 0.265625 16.28125 0.265625 18.28125 2.265625 C11.02125 1.935625 3.76125 1.605625 -3.71875 1.265625 C-4.08768239 7.6858741 -4.08768239 7.6858741 -2.71875 11.265625 C-3.70875 12.255625 -4.69875 13.245625 -5.71875 14.265625 C-6.95762548 11.78787405 -6.88616669 10.02908793 -6.90625 7.265625 C-6.92042969 6.37875 -6.93460937 5.491875 -6.94921875 4.578125 C-6.49534393 0.02399117 -3.9397372 0.01037553 0 0 Z " fill="#B84A49" transform="translate(503.71875,359.734375)"/>
<path d="M0 0 C-0.66 0 -1.32 0 -2 0 C-2 0.66 -2 1.32 -2 2 C-3.91754723 4.16766209 -5.38259005 4.94792928 -8.26953125 5.19140625 C-10.52030532 5.18786172 -12.75317276 5.12962465 -15 5 C-15 5.99 -15 6.98 -15 8 C-17.31 8.33 -19.62 8.66 -22 9 C-17.36362101 3.59089118 -7.2120376 -2.77386062 0 0 Z " fill="#BC494A" transform="translate(457,385)"/>
<path d="M0 0 C3.13355571 2.89461355 5.24842462 5.7713477 7.3125 9.5 C7.84488281 10.4384375 8.37726562 11.376875 8.92578125 12.34375 C10.07314683 15.18087217 10.12331476 16.21470493 9 19 C8.34 17.02 7.68 15.04 7 13 C5.35 13 3.7 13 2 13 C2.226875 12.0925 2.45375 11.185 2.6875 10.25 C3.34059865 7.02050629 3.34059865 7.02050629 1.5625 4.8125 C1.046875 4.214375 0.53125 3.61625 0 3 C0 2.01 0 1.02 0 0 Z " fill="#BB4143" transform="translate(592,401)"/>
<path d="M0 0 C0.66 0 1.32 0 2 0 C2 7.59 2 15.18 2 23 C-1.63 23 -5.26 23 -9 23 C-9 22.67 -9 22.34 -9 22 C-6.94921875 21.77213542 -4.8984375 21.54427083 -2.84765625 21.31640625 C-0.98859771 21.18113386 -0.98859771 21.18113386 0 20 C0.08669432 18.5112814 0.10703494 17.018555 0.09765625 15.52734375 C0.09443359 14.62822266 0.09121094 13.72910156 0.08789062 12.80273438 C0.07951172 11.85720703 0.07113281 10.91167969 0.0625 9.9375 C0.05798828 8.98810547 0.05347656 8.03871094 0.04882812 7.06054688 C0.0370011 4.70696935 0.02052025 2.35351523 0 0 Z " fill="#B03338" transform="translate(602,607)"/>
<path d="M0 0 C3.95092059 -0.07409401 7.90157294 -0.12857406 11.85302734 -0.16479492 C13.85919374 -0.18732251 15.86516526 -0.2254357 17.87109375 -0.26367188 C19.12792969 -0.27333984 20.38476562 -0.28300781 21.6796875 -0.29296875 C22.84226074 -0.3086792 24.00483398 -0.32438965 25.20263672 -0.34057617 C26.1257666 -0.22818604 27.04889648 -0.1157959 28 0 C28.66 0.99 29.32 1.98 30 3 C28.63681641 2.76990234 28.63681641 2.76990234 27.24609375 2.53515625 C21.87832287 1.76833184 16.47511384 1.64244689 11.0625 1.4375 C9.99708984 1.39431641 8.93167969 1.35113281 7.83398438 1.30664062 C5.22276557 1.20125511 2.61146254 1.09912912 0 1 C0 0.67 0 0.34 0 0 Z " fill="#B93232" transform="translate(522,343)"/>
<path d="M0 0 C0.66 0 1.32 0 2 0 C2.33 1.65 2.66 3.3 3 5 C-1.29 5 -5.58 5 -10 5 C-10 4.01 -10 3.02 -10 2 C-7.03 2.33 -4.06 2.66 -1 3 C-0.67 2.01 -0.34 1.02 0 0 Z " fill="#3B6FAB" transform="translate(543,553)"/>
<path d="M0 0 C0 0.66 0 1.32 0 2 C-0.97114746 2.65319214 -0.97114746 2.65319214 -1.96191406 3.31958008 C-4.19700621 4.81933557 -4.19700621 4.81933557 -4.54589844 7.26831055 C-4.5668457 8.13238525 -4.58779297 8.99645996 -4.609375 9.88671875 C-4.64160156 10.82451172 -4.67382812 11.76230469 -4.70703125 12.72851562 C-4.72121094 13.70498047 -4.73539063 14.68144531 -4.75 15.6875 C-4.77964844 16.67556641 -4.80929687 17.66363281 -4.83984375 18.68164062 C-4.91055492 21.12117596 -4.96324265 23.55975525 -5 26 C-5.33 26 -5.66 26 -6 26 C-6.08678303 22.04180389 -6.14031733 18.08385066 -6.1875 14.125 C-6.21263672 12.99707031 -6.23777344 11.86914062 -6.26367188 10.70703125 C-6.27333984 9.63066406 -6.28300781 8.55429687 -6.29296875 7.4453125 C-6.3086792 6.45031738 -6.32438965 5.45532227 -6.34057617 4.43017578 C-6.22818604 3.62821777 -6.1157959 2.82625977 -6 2 C-3 0 -3 0 0 0 Z " fill="#2561A3" transform="translate(574,551)"/>
<path d="M0 0 C1 2 1 2 0.3125 4.375 C-1.13371674 7.26743348 -2.42915785 9.03406189 -5 11 C-7.1328125 10.6015625 -7.1328125 10.6015625 -9 10 C-7.8758824 8.70756532 -6.75067408 7.41607925 -5.625 6.125 C-4.99851562 5.40570313 -4.37203125 4.68640625 -3.7265625 3.9453125 C-2.52573166 2.5923402 -1.2791655 1.2791655 0 0 Z " fill="#BE4549" transform="translate(434,394)"/>
<path d="M0 0 C0.721875 0.12375 1.44375 0.2475 2.1875 0.375 C2.5175 1.035 2.8475 1.695 3.1875 2.375 C-1.2675 5.345 -1.2675 5.345 -5.8125 8.375 C-6.4725 7.715 -7.1325 7.055 -7.8125 6.375 C-3.50480769 0.46730769 -3.50480769 0.46730769 0 0 Z " fill="#EAECEC" transform="translate(738.8125,751.625)"/>
<path d="M0 0 C0.33 0.99 0.66 1.98 1 3 C-0.6186964 6.23739279 -3.84489543 7.42244771 -7 9 C-9.00800456 8.71887936 -11.01014051 8.38932033 -13 8 C-10.02999718 6.01999812 -7.05180034 4.53121208 -3.83984375 3 C-1.83260604 2.02166889 -1.83260604 2.02166889 0 0 Z " fill="#B94D4E" transform="translate(530,478)"/>
<path d="M0 0 C0.33 0 0.66 0 1 0 C1.22304441 1.74818591 1.4278645 3.49870323 1.625 5.25 C1.74101563 6.22453125 1.85703125 7.1990625 1.9765625 8.203125 C2.00153746 11.18347023 1.60575845 12.53128293 0 15 C-0.66 15.66 -1.32 16.32 -2 17 C-2.21824777 10.9981863 -1.5056904 5.80766296 0 0 Z " fill="#243B4A" transform="translate(781,679)"/>
<path d="M0 0 C-0.33 0.99 -0.66 1.98 -1 3 C-2.98 3.33 -4.96 3.66 -7 4 C-7.33 4.99 -7.66 5.98 -8 7 C-8.66 7 -9.32 7 -10 7 C-7.6551217 1.76911763 -5.98347266 -0.48514643 0 0 Z " fill="#C04949" transform="translate(474,343)"/>
<path d="M0 0 C0.33 0 0.66 0 1 0 C1.02578125 0.66386719 1.0515625 1.32773437 1.078125 2.01171875 C1.4345756 7.56100642 1.83610767 10.96228622 6 15 C6.66 15.66 7.32 16.32 8 17 C5 17 5 17 2.3125 14.6875 C-1.18715562 10.3391255 -0.4237039 5.29159088 0 0 Z " fill="#B9373A" transform="translate(418,643)"/>
<path d="M0 0 C0.66 0.33 1.32 0.66 2 1 C2 1.66 2 2.32 2 3 C1.34 3 0.68 3 0 3 C0 9.6 0 16.2 0 23 C-0.33 23 -0.66 23 -1 23 C-1.02887512 19.35418313 -1.04675585 15.70839537 -1.0625 12.0625 C-1.07087891 11.02158203 -1.07925781 9.98066406 -1.08789062 8.90820312 C-1.09272461 7.42416992 -1.09272461 7.42416992 -1.09765625 5.91015625 C-1.10289307 4.99371338 -1.10812988 4.07727051 -1.11352539 3.13305664 C-1 1 -1 1 0 0 Z " fill="#3064A0" transform="translate(494,555)"/>
<path d="M0 0 C0.66 0.66 1.32 1.32 2 2 C-0.31 4.64 -2.62 7.28 -5 10 C-5.66 9.34 -6.32 8.68 -7 8 C-7 7.01 -7 6.02 -7 5 C-4.625 3.4375 -4.625 3.4375 -2 2 C-1.34 1.34 -0.68 0.68 0 0 Z " fill="#B73D40" transform="translate(490,429)"/>
<path d="M0 0 C1.20220203 3.53094302 0.79532349 6.12898982 0.0625 9.75 C-0.13214844 10.73484375 -0.32679688 11.7196875 -0.52734375 12.734375 C-0.68332031 13.48203125 -0.83929688 14.2296875 -1 15 C-3 12 -3 12 -2.75 8.625 C-2.10626078 5.51359378 -1.30944157 2.88077146 0 0 Z " fill="#BE565B" transform="translate(421,410)"/>
<path d="M0 0 C1.11241681 3.33725042 1.08987444 5.6465402 0 9 C-2.0625 11.3125 -2.0625 11.3125 -4 13 C-4.66 12.34 -5.32 11.68 -6 11 C-5.38125 10.29875 -4.7625 9.5975 -4.125 8.875 C-1.9572991 5.94222819 -0.97344445 3.48817594 0 0 Z " fill="#BD5351" transform="translate(539,464)"/>
<path d="M0 0 C1.46313772 0.76167457 2.92036661 1.53470707 4.375 2.3125 C5.18710937 2.74175781 5.99921875 3.17101562 6.8359375 3.61328125 C9 5 9 5 11 8 C6.51061181 7.03798824 2.99160978 5.58993173 0 2 C0 1.34 0 0.68 0 0 Z " fill="#BA3D40" transform="translate(577,389)"/>
<path d="M0 0 C-1.1875 1.5625 -1.1875 1.5625 -3 3 C-5.5625 2.625 -5.5625 2.625 -8 2 C-8.99 2.495 -8.99 2.495 -10 3 C-11.67654729 2.72057545 -13.34608154 2.39171753 -15 2 C-15 1.67 -15 1.34 -15 1 C-13.0641649 0.63684334 -11.12624752 0.28477269 -9.1875 -0.0625 C-8.10855469 -0.25972656 -7.02960937 -0.45695313 -5.91796875 -0.66015625 C-3 -1 -3 -1 0 0 Z " fill="#EFD5D0" transform="translate(572,673)"/>
<path d="M0 0 C0.33 0 0.66 0 1 0 C1.08086147 1.79093191 1.13912702 3.58289628 1.1875 5.375 C1.22230469 6.37273437 1.25710938 7.37046875 1.29296875 8.3984375 C1.19628906 9.25695312 1.09960938 10.11546875 1 11 C0.01 11.66 -0.98 12.32 -2 13 C-2.99 12.67 -3.98 12.34 -5 12 C-4.34 11.01 -3.68 10.02 -3 9 C-2.34 9 -1.68 9 -1 9 C-0.67 6.03 -0.34 3.06 0 0 Z " fill="#BF5553" transform="translate(522,362)"/>
<path d="M0 0 C0.88492145 2.47778006 1.11637742 3.66056586 0.25 6.1875 C-1 8 -1 8 -4 9 C-4.33 8.01 -4.66 7.02 -5 6 C-3.59554165 3.7363436 -1.8032087 1.9791315 0 0 Z " fill="#F6E9E3" transform="translate(602,655)"/>
<path d="M0 0 C0.99 0 1.98 0 3 0 C2.375 2.875 2.375 2.875 1 6 C-2.125 7.375 -2.125 7.375 -5 8 C-4.24266726 6.6589523 -3.46867264 5.32730219 -2.6875 4 C-2.25824219 3.2575 -1.82898438 2.515 -1.38671875 1.75 C-0.70029297 0.88375 -0.70029297 0.88375 0 0 Z " fill="#1D59A2" transform="translate(425,566)"/>
<path d="M0 0 C0 0.66 0 1.32 0 2 C0.99 2 1.98 2 3 2 C3 2.99 3 3.98 3 5 C-0.63 4.01 -4.26 3.02 -8 2 C-8 1.67 -8 1.34 -8 1 C-2.25 0 -2.25 0 0 0 Z " fill="#BC4B49" transform="translate(523,424)"/>
<path d="M0 0 C-2.17532857 2.17532857 -3.10274469 2.3662254 -6 3 C-6.99 3.495 -6.99 3.495 -8 4 C-9.32 3.01 -10.64 2.02 -12 1 C-8.0186217 -0.3271261 -4.14954773 -0.06915913 0 0 Z " fill="#F1D8D2" transform="translate(557,675)"/>
<path d="M0 0 C0.7425 0.45375 1.485 0.9075 2.25 1.375 C4.46930578 2.68640796 6.67967822 3.88280803 9 5 C7.375 5.6875 7.375 5.6875 5 6 C1.75 4.5625 1.75 4.5625 -1 3 C-0.67 2.01 -0.34 1.02 0 0 Z " fill="#BF4447" transform="translate(430,662)"/>
<path d="M0 0 C1.43791516 0.14168137 2.8753237 0.28851043 4.3125 0.4375 C5.11300781 0.51871094 5.91351562 0.59992188 6.73828125 0.68359375 C9 1 9 1 12 2 C12 2.66 12 3.32 12 4 C7.80530429 3.40075776 3.99000166 2.42500059 0 1 C0 0.67 0 0.34 0 0 Z " fill="#C65657" transform="translate(557,383)"/>
<path d="M0 0 C1.12588014 0.95729916 2.2506715 1.91587895 3.375 2.875 C4.00148438 3.40867187 4.62796875 3.94234375 5.2734375 4.4921875 C6.55836651 5.61432007 7.79371975 6.79371975 9 8 C7.35 7.67 5.7 7.34 4 7 C4 6.34 4 5.68 4 5 C2.68 4.34 1.36 3.68 0 3 C0 2.01 0 1.02 0 0 Z " fill="#ECD5D1" transform="translate(420,657)"/>
<path d="M0 0 C3.37462715 0.54723683 5.08235 1.0549 8 3 C6.02 3.33 4.04 3.66 2 4 C1.34 2.68 0.68 1.36 0 0 Z " fill="#B93A3C" transform="translate(569,386)"/>
<path d="M0 0 C1.27875 -0.061875 2.5575 -0.12375 3.875 -0.1875 C4.95394531 -0.23970703 4.95394531 -0.23970703 6.0546875 -0.29296875 C6.69664062 -0.19628906 7.33859375 -0.09960938 8 0 C8.66 0.99 9.32 1.98 10 3 C3.375 2.25 3.375 2.25 0 0 Z " fill="#BC3E3E" transform="translate(542,343)"/>
<path d="M0 0 C2.97 0 5.94 0 9 0 C7.515 1.485 7.515 1.485 6 3 C5.01 3 4.02 3 3 3 C3 2.34 3 1.68 3 1 C2.01 0.67 1.02 0.34 0 0 Z " fill="#1F58A0" transform="translate(368,507)"/>
<path d="M0 0 C0.66 0.66 1.32 1.32 2 2 C1.01 4.31 0.02 6.62 -1 9 C-1.66 8.67 -2.32 8.34 -3 8 C-1.125 2.25 -1.125 2.25 0 0 Z " fill="#BA4445" transform="translate(482,438)"/>
</svg>
